HIERARCHY
ROOT Hips
{
	OFFSET 0.000000 0.000000 0.000000 
	CHANNELS 6 Xposition Yposition Zposition Zrotation Yrotation Xrotation
	JOINT LeftUpLeg
	{
		OFFSET 1.363060 -1.794630 0.839290 
		CHANNELS 3 Zrotation Yrotation Xrotation
		JOINT LeftLeg
		{
			OFFSET 2.448110 -6.726130 0.000000 
			CHANNELS 3 Zrotation Yrotation Xrotation
			JOINT LeftFoot
			{
				OFFSET 2.562200 -7.039590 0.000000 
				CHANNELS 3 Zrotation Yrotation Xrotation
				JOINT LeftToeBase
				{
					OFFSET 0.157640 -0.433110 2.322550 
					CHANNELS 3 Zrotation Yrotation Xrotation
					End Site
					{
						OFFSET 0.000000 0.000000 0.000000 
					}
				}
			}
		}
	}
	JOINT RightUpLeg
	{
		OFFSET -1.305520 -1.794630 0.839290 
		CHANNELS 3 Zrotation Yrotation Xrotation
		JOINT RightLeg
		{
			OFFSET -2.542530 -6.985550 0.000000 
			CHANNELS 3 Zrotation Yrotation Xrotation
			JOINT RightFoot
			{
				OFFSET -2.568260 -7.056230 0.000000 
				CHANNELS 3 Zrotation Yrotation Xrotation
				JOINT RightToeBase
				{
					OFFSET -0.164730 -0.452590 2.363150 
					CHANNELS 3 Zrotation Yrotation Xrotation
					End Site
					{
						OFFSET 0.000000 0.000000 0.000000 
					}
				}
			}
		}
	}
	JOINT Spine
	{
		OFFSET 0.028270 2.035590 -0.193380 
		CHANNELS 3 Zrotation Yrotation Xrotation
		JOINT Spine1
		{
			OFFSET 0.056720 2.048850 -0.042750 
			CHANNELS 3 Zrotation Yrotation Xrotation
			JOINT Neck1
			{
				OFFSET -0.054170 1.746240 0.172020 
				CHANNELS 3 Zrotation Yrotation Xrotation
				JOINT Head
				{
					OFFSET 0.104070 1.761360 -0.123970 
					CHANNELS 3 Zrotation Yrotation Xrotation
					End Site
					{
						OFFSET 0.000000 0.000000 0.000000 
					}
				}
			}
			JOINT LeftArm
			{
				OFFSET 3.362410 1.200890 -0.311210 
				CHANNELS 3 Zrotation Yrotation Xrotation
				JOINT LeftForeArm
				{
					OFFSET 4.983000 -0.000000 -0.000000 
					CHANNELS 3 Zrotation Yrotation Xrotation
					JOINT LeftHand
					{
						OFFSET 3.483560 -0.000000 -0.000000 
						CHANNELS 3 Zrotation Yrotation Xrotation
						JOINT LeftHandIndex1
						{
							OFFSET 0.715260 -0.000000 -0.000000 
							CHANNELS 3 Zrotation Yrotation Xrotation
							End Site
							{
								OFFSET 0.000000 0.000000 0.000000 
							}
						}
					}
				}
			}
			JOINT RightArm
			{
				OFFSET -3.136600 1.374050 -0.404650 
				CHANNELS 3 Zrotation Yrotation Xrotation
				JOINT RightForeArm
				{
					OFFSET -5.241900 -0.000000 -0.000000 
					CHANNELS 3 Zrotation Yrotation Xrotation
					JOINT RightHand
					{
						OFFSET -3.444170 -0.000000 -0.000000 
						CHANNELS 3 Zrotation Yrotation Xrotation
						JOINT RightHandIndex1
						{
							OFFSET -0.622530 -0.000000 -0.000000 
							CHANNELS 3 Zrotation Yrotation Xrotation
							End Site
							{
								OFFSET 0.000000 0.000000 0.000000 
							}
						}
					}
				}
			}
		}
	}
}
MOTION
Frames: 13
Frame Time: 0.041667
-1.425130 18.588397 7.348969 -9.128570 3.947329 14.361735 -1.673110 -44.029074 -1.174372 -2.903183 -1.397257 -1.139078 -15.692724 44.907969 -22.882506 0.127300 2.299700 6.334600 27.603687 23.661165 -9.046620 3.354869 -0.684381 3.475562 6.467696 -21.981470 1.410797 -0.022400 -0.966200 2.655900 -6.289016 0.961562 31.705001 2.208344 1.363322 -29.561881 -1.491263 1.039570 9.405191 -1.423400 0.562500 5.267400 83.099243 -89.029266 -112.562784 64.195240 -52.264783 -44.435287 -0.291881 -1.645623 -34.001510 -7.125000 0.000000 0.000000 73.526971 61.550583 60.713773 -76.384771 52.713845 -51.426117 -0.785481 1.460322 -18.068567 7.125000 0.000000 0.000000 
-1.406555 18.584829 7.393675 -9.213812 4.697599 13.595753 -2.747582 -42.599257 -0.723835 -2.921064 -1.328324 -0.792977 -15.224267 43.807538 -20.442581 0.068000 1.682900 4.630100 27.519634 23.386021 -8.285585 3.362166 -0.739489 3.643053 6.599600 -22.251524 0.745402 -0.029700 -1.112700 3.058900 -1.765180 0.024727 30.984717 1.345039 1.040218 -30.036360 -2.781842 0.645445 11.198393 -1.665700 0.321100 5.594500 -102.266835 -89.731290 74.893952 65.888521 -53.388576 -46.346400 -0.331531 -1.579403 -33.351519 -7.125000 0.000000 0.000000 67.490753 61.423663 56.620138 -80.806255 52.353277 -55.728040 -0.920709 1.436663 -19.324057 7.125000 0.000000 0.000000 
-1.387141 18.579372 7.442054 -9.241152 5.349739 12.962284 -3.892584 -41.556545 -0.050805 -2.946667 -1.262767 -0.481002 -14.795333 42.862936 -18.625669 0.030800 1.132800 3.114400 27.385576 23.185327 -7.477891 3.374425 -0.764932 3.722307 6.729617 -22.534829 0.113398 -0.037100 -1.242700 3.416800 2.257808 -0.733123 29.195640 0.546896 0.731365 -30.325124 -3.614940 0.284881 12.712260 -1.758700 0.108500 5.778200 -107.431952 -88.445818 82.235760 67.307909 -54.228238 -47.948012 -0.411803 -1.559436 -32.069265 -7.125000 0.000000 0.000000 64.703020 59.689915 52.708168 -84.540422 52.740584 -59.485639 -1.064103 1.400907 -18.626459 7.125000 0.000000 0.000000 
-1.368985 18.571921 7.494421 -9.183957 5.753603 12.547460 -4.996501 -40.906259 0.809722 -2.978104 -1.201763 -0.269977 -14.440836 42.152609 -17.588187 0.013400 0.746100 2.050600 27.326090 23.020290 -6.626818 3.389257 -0.761420 3.744118 6.836552 -22.770345 -0.435589 -0.039000 -1.274000 3.503100 4.520636 -1.097546 26.067007 0.002967 0.420354 -30.243011 -4.074729 -0.058588 13.794941 -1.804600 -0.063100 5.752300 -111.038646 -87.266806 88.391924 68.587761 -54.885385 -49.411322 -0.444505 -1.582972 -31.309840 -7.125000 0.000000 0.000000 63.160470 58.011997 49.577447 -88.346087 53.395914 -63.257813 -1.195449 1.359197 -18.016922 7.125000 0.000000 0.000000 
-1.350515 18.563630 7.550041 -9.414276 6.352927 12.306112 -5.904594 -40.564410 1.733026 -3.016864 -1.198530 -0.152613 -14.164382 41.587897 -16.997827 0.005900 0.496500 1.364400 27.382817 22.926724 -5.903267 3.404276 -0.770974 3.713827 6.952372 -23.095498 -1.042971 -0.039000 -1.275000 3.505700 8.603449 -1.578467 22.235351 -0.865039 0.008548 -29.595475 -5.674500 -0.235589 14.708938 -2.111200 -0.229300 5.722900 -114.924417 -86.149675 94.308038 69.973588 -55.528440 -51.000644 -0.428846 -1.593841 -31.554309 -7.125000 0.000000 0.000000 61.198321 56.460526 46.417518 -92.333981 53.903677 -67.085689 -1.303816 1.309882 -17.907975 7.125000 0.000000 0.000000 
-1.331521 18.555655 7.609544 -9.867352 7.123664 12.374287 -6.615037 -40.185200 2.484834 -3.048358 -1.195799 -0.095623 -13.917826 41.084115 -16.240875 0.000800 0.186200 0.511700 27.522353 22.922451 -5.286662 3.423532 -0.784153 3.608142 7.087805 -23.529019 -1.791744 -0.044300 -1.357700 3.733600 14.249130 -1.504540 16.318957 -2.357045 -0.467242 -28.473644 -7.211845 -0.470509 16.468393 -2.359100 -0.455200 5.921200 -120.311789 -84.595160 101.239499 71.449391 -56.164502 -52.691983 -0.416589 -1.575662 -32.279733 -7.125000 0.000000 0.000000 58.609634 54.135715 42.645485 -96.569923 54.374092 -71.009988 -1.383120 1.246604 -18.084211 7.125000 0.000000 0.000000 
-1.311581 18.547889 7.671670 -10.246638 7.835524 12.563058 -7.234370 -39.698208 3.044243 -3.066699 -1.174188 -0.075909 -13.663744 40.583863 -15.287658 0.001200 -0.226400 -0.622000 27.645610 22.961580 -4.629508 3.452221 -0.739360 3.384814 7.235595 -23.982987 -2.624187 -0.059300 -1.571200 4.322100 18.971512 -0.830857 10.002294 -3.674955 -0.876214 -26.790897 -8.565732 -0.653551 18.207448 -2.597500 -0.663200 6.158000 -125.471884 -83.342834 107.930350 72.916803 -56.698500 -54.322299 -0.426229 -1.573003 -32.612838 -7.125000 0.000000 0.000000 56.329697 51.777460 38.892801 -100.954866 54.661826 -74.913946 -1.430939 1.176723 -18.284322 7.125000 0.000000 0.000000 
-1.291012 18.540963 7.735895 -10.519154 8.497728 12.844004 -7.814403 -39.325370 3.491485 -3.081769 -1.143600 -0.060426 -13.390255 40.063884 -14.609513 0.005500 -0.480400 -1.320000 27.701027 23.019571 -4.006001 3.484993 -0.663801 3.097140 7.396359 -24.472600 -3.424081 -0.068900 -1.693200 4.658500 22.830069 0.125877 3.855965 -4.548029 -1.213972 -24.790059 -10.277763 -0.658202 19.547814 -2.972800 -0.809700 6.351500 -129.760099 -82.409007 113.713533 74.350510 -57.129890 -55.859458 -0.455996 -1.590639 -32.100353 -7.125000 0.000000 0.000000 54.357826 49.612820 35.483854 -105.232436 54.640530 -78.587415 -1.442604 1.110844 -18.081202 7.125000 0.000000 0.000000 
-1.270129 18.536240 7.802429 -10.791905 9.188691 12.985455 -8.503847 -39.216818 4.082633 -3.101394 -1.139348 -0.029061 -13.195944 39.687852 -14.186511 0.011600 -0.696500 -1.914000 27.683991 23.102922 -3.390423 3.518594 -0.578790 2.787786 7.574782 -25.012755 -4.165354 -0.075600 -1.773600 4.880400 27.310690 0.918741 -0.630631 -5.222786 -1.564459 -22.865469 -11.762793 -0.491250 20.224366 -3.281200 -0.873100 6.492800 -133.857947 -81.955888 118.694020 75.713175 -57.462580 -57.225363 -0.494310 -1.607789 -31.141580 -7.125000 0.000000 0.000000 52.279847 47.882427 32.465980 -109.393387 54.178067 -82.089413 -1.435347 1.041876 -17.473954 7.125000 0.000000 0.000000 
-1.250085 18.533931 7.868859 -10.625248 9.647289 13.758663 -9.213221 -39.162407 4.495222 -3.104620 -1.044371 -0.070234 -13.036598 39.533525 -13.762657 0.024600 -1.011700 -2.781000 27.652734 23.247487 -2.849252 3.553199 -0.515019 2.522342 7.753255 -25.566737 -4.939138 -0.091200 -1.947300 5.360000 27.591913 2.961380 -9.562932 -5.430336 -1.771791 -20.491567 -12.881943 -0.624275 21.648734 -3.593200 -1.051800 6.629200 -135.814769 -80.291728 121.969212 77.183316 -57.765361 -58.751879 -0.495226 -1.639420 -30.986378 -7.125000 0.000000 0.000000 51.108633 44.822807 29.690862 -114.138801 53.718116 -85.880470 -1.399712 0.935053 -17.372876 7.125000 0.000000 0.000000 
-1.233294 18.532672 7.933609 -10.452397 10.078101 14.085660 -9.833831 -39.100767 4.954799 -3.108497 -0.995427 -0.108669 -12.843222 39.231563 -13.397043 0.036100 -1.225900 -3.370600 27.682073 23.281881 -2.285847 3.581215 -0.473512 2.399959 7.902429 -25.993063 -5.664258 -0.101100 -2.050700 5.645800 27.419861 4.126266 -14.914700 -5.424925 -1.891071 -18.910672 -13.262715 -0.809622 23.377543 -3.765400 -1.228200 6.989900 -139.029168 -78.746686 126.413823 78.996640 -58.195519 -60.553769 -0.456806 -1.666994 -32.004570 -7.125000 0.000000 0.000000 49.213446 42.175348 26.265839 -119.267270 52.692748 -89.894770 -1.352531 0.797752 -18.154137 7.125000 0.000000 0.000000 
-1.219651 18.532147 7.997519 -10.264038 10.577306 14.272365 -10.432684 -39.241461 5.475031 -3.114376 -0.976403 -0.170331 -12.687397 38.982850 -13.163709 0.046100 -1.385300 -3.809600 27.685749 23.255877 -1.791280 3.607322 -0.448412 2.342026 8.036213 -26.359707 -6.401398 -0.111500 -2.153200 5.929100 27.352586 4.843892 -18.718125 -5.313410 -2.023495 -17.817988 -12.364356 -1.042318 25.629934 -3.597900 -1.353200 7.589000 -142.188464 -77.240183 130.742372 81.041936 -58.682502 -62.488515 -0.419513 -1.689971 -32.949454 -7.125000 0.000000 0.000000 47.146122 39.718377 22.773669 -124.532403 51.132863 -93.941097 -1.322925 0.652641 -18.437528 7.125000 0.000000 0.000000 
-1.205903 18.533092 8.060695 -10.008428 11.084813 14.493436 -11.050074 -39.487544 6.009591 -3.119925 -0.965801 -0.257513 -12.574818 38.833559 -12.981155 0.055800 -1.524200 -4.192500 27.640570 23.227666 -1.344785 3.635821 -0.418335 2.271294 8.154586 -26.683476 -7.164935 -0.136400 -2.380800 6.559200 27.051283 5.362434 -22.423588 -4.980947 -2.209166 -17.068380 -10.265457 -1.378591 28.464336 -3.065800 -1.442400 8.430600 -144.144235 -75.621807 133.724127 83.270185 -59.147619 -64.491500 -0.375158 -1.714785 -32.746514 -7.125000 0.000000 0.000000 46.109842 37.013959 20.027899 -129.304615 49.279611 -97.487431 -1.289495 0.502077 -18.860280 7.125000 0.000000 0.000000 
